{"asset":{"version":"2.0","generator":"Blockbench 4.12.4 glTF exporter"},"scenes":[{"nodes":[46],"name":"blockbench_export"}],"scene":0,"nodes":[{"name":"turret"},{"name":"mud_blocker_l"},{"name":"mud_blocker_r"},{"rotation":[-0.07845909572784494,0,0,0.996917333733128],"translation":[0.4375,1.55878,-1.920849375],"name":"driver_door"},{"translation":[-1.240625,0.94375,-3.4625],"name":"guide_wheel_l"},{"translation":[-1.303125,1.03125,3.7875],"name":"power_wheel_l"},{"translation":[-0.04375000000000018,-0.17421874999999998,0.4786562499999998],"name":"wheel"},{"rotation":[-0.17364817766693033,0,0,0.984807753012208],"translation":[-1.196875,0.65625,-2.90625],"name":"w1","children":[6]},{"translation":[-0.04375000000000018,-0.17421874999999998,0.47865625],"name":"wheel13"},{"translation":[-1.196875,0.65625,-1.8625],"name":"w2","children":[8]},{"translation":[-0.04375000000000018,-0.17421874999999998,0.47865625],"name":"wheel2"},{"translation":[-1.196875,0.65625,-1.03125],"name":"w3","children":[10]},{"translation":[-0.04375000000000018,-0.17421874999999998,0.47865625],"name":"wheel3"},{"translation":[-1.196875,0.65625,-0.19375],"name":"w4","children":[12]},{"translation":[-0.04375000000000018,-0.17421874999999998,0.47865625],"name":"wheel4"},{"translation":[-1.196875,0.65625,0.64375],"name":"w5","children":[14]},{"translation":[-0.04375000000000018,-0.17421874999999998,0.47865625],"name":"wheel16"},{"translation":[-1.196875,0.65625,1.48125],"name":"w6","children":[16]},{"translation":[-0.04375000000000018,-0.17421874999999998,0.4786562499999998],"name":"wheel5"},{"translation":[-1.196875,0.65625,2.31875],"name":"w7","children":[18]},{"translation":[-1.46875,0,0],"name":"track_l"},{"name":"wheels_l","children":[4,5,7,9,11,13,15,17,19,20]},{"translation":[1.46875,0,0],"name":"track_l2"},{"translation":[1.303125,1.03125,3.7875],"name":"power_wheel_r"},{"translation":[0.04375000000000018,-0.17421874999999998,0.4786562499999998],"name":"wheel6"},{"translation":[1.196875,0.65625,-2.84375],"name":"w8","children":[24]},{"translation":[0.04375000000000018,-0.17421874999999998,0.47865625],"name":"wheel7"},{"translation":[1.196875,0.65625,-1.8],"name":"w9","children":[26]},{"translation":[1.240625,0.94375,-3.4625],"name":"guide_wheel_r"},{"translation":[0.04375000000000018,-0.17421874999999998,0.47865625],"name":"wheel8"},{"translation":[1.196875,0.65625,-0.96875],"name":"w10","children":[29]},{"translation":[0.04375000000000018,-0.17421874999999998,0.47865625],"name":"wheel9"},{"translation":[1.196875,0.65625,-0.13125],"name":"w11","children":[31]},{"translation":[0.04375000000000018,-0.17421874999999998,0.54115625],"name":"wheel10"},{"translation":[1.196875,0.65625,0.64375],"name":"w12","children":[33]},{"translation":[0.04375000000000018,-0.17421874999999998,0.47865625],"name":"wheel11"},{"translation":[1.196875,0.65625,1.54375],"name":"w13","children":[35]},{"translation":[0.04375000000000018,-0.17421874999999998,0.4786562499999998],"name":"wheel12"},{"translation":[1.196875,0.65625,2.38125],"name":"w14","children":[37]},{"name":"wheels_r","children":[22,23,25,27,28,30,32,34,36,38]},{"name":"body","children":[1,2,3,21,39]},{"name":"visual","children":[0,40]},{"name":"module"},{"name":"armor"},{"name":"collision"},{"name":"root","children":[41,42,43,44]},{"name":"root","mesh":0,"children":[45],"skin":0}],"bufferViews":[{"buffer":0,"byteOffset":0,"byteLength":89328,"target":34962,"byteStride":12},{"buffer":0,"byteOffset":89328,"byteLength":89328,"target":34962,"byteStride":12},{"buffer":0,"byteOffset":178656,"byteLength":59552,"target":34962,"byteStride":8},{"buffer":0,"byteOffset":238208,"byteLength":59552,"target":34962,"byteStride":8},{"buffer":0,"byteOffset":297760,"byteLength":119104,"target":34962,"byteStride":16},{"buffer":0,"byteOffset":416864,"byteLength":22224,"target":34963},{"buffer":0,"byteOffset":439088,"byteLength":2944}],"buffers":[{"byteLength":442032,"uri":"data:application/octet-stream;base64,"}],"accessors":[{"bufferView":0,"componentType":5126,"count":7444,"max":[1.9070312976837158,2.582721710205078,4.704273700714111],"min":[-1.9070312976837158,0.09550011157989502,-4.25380802154541],"type":"VEC3"},{"bufferView":1,"componentType":5126,"count":7444,"max":[1,1,1],"min":[-1,-1,-1],"type":"VEC3"},{"bufferView":2,"componentType":5126,"count":7444,"max":[0.65625,0.639229416847229],"min":[0,0],"type":"VEC2"},{"bufferView":3,"componentType":5123,"count":7444,"max":[0,42,0,0],"min":[0,2,0,0],"type":"VEC4"},{"bufferView":4,"componentType":5126,"count":7444,"max":[0,1,0,0],"min":[0,1,0,0],"type":"VEC4"},{"bufferView":5,"componentType":5123,"count":11112,"max":[7443],"min":[0],"type":"SCALAR"},{"bufferView":6,"componentType":5126,"count":46,"max":[1,0,0,0,0,1,0.3420201539993286,0,0,0,1,0,1.46875,0,3.4625000953674316,1],"min":[1,0,0,0,0,0.9396926164627075,0,0,0,-0.3420201539993286,0.9396926164627075,0,-1.46875,-1.8400758504867554,-3.7874999046325684,1],"type":"MAT4"}],"materials":[{"pbrMetallicRoughness":{"metallicFactor":0,"roughnessFactor":1,"baseColorTexture":{"index":0}},"alphaMode":"MASK","alphaCutoff":0.05,"doubleSided":true}],"textures":[{"sampler":0,"source":0,"name":"m1a2.png"}],"samplers":[{"magFilter":9728,"minFilter":9728,"wrapS":33071,"wrapT":33071}],"images":[{"mimeType":"image/png","name":"m1a2.png","uri":"m1a2.png"}],"meshes":[{"primitives":[{"mode":4,"attributes":{"POSITION":0,"NORMAL":1,"TEXCOORD_0":2,"JOINTS_0":3,"WEIGHTS_0":4},"indices":5,"material":0}]}],"skins":[{"inverseBindMatrices":6,"joints":[45,41,0,40,1,2,3,21,4,5,7,6,9,8,11,10,13,12,15,14,17,16,19,18,20,39,22,23,25,24,27,26,28,30,29,32,31,34,33,36,35,38,37,42,43,44],"skeleton":45}]}