{"asset":{"version":"2.0","generator":"Blockbench 4.12.4 glTF exporter"},"scenes":[{"nodes":[53],"name":"blockbench_export"}],"scene":0,"nodes":[{"translation":[0,0,-2.4375],"name":"barrel"},{"translation":[0,0.546875,-1.85625],"name":"cannon","children":[0]},{"translation":[0,0.75,0],"name":"railing"},{"translation":[0.91875,1.0812499999999998,1.53125],"name":"exp_cap_r"},{"translation":[-0.78125,1.09375,1.31875],"name":"exp_cap_l"},{"translation":[0.525,1.3062500000000004,0.85],"name":"captain_door"},{"rotation":[0,0.3826834323650898,0,0.9238795325112867],"translation":[-0.268305625,1.13125,0.830805625],"name":"loader_door"},{"translation":[0,1.53125,0],"name":"turret","children":[1,2,3,4,5,6]},{"name":"mud_blocker_l"},{"name":"mud_blocker_r"},{"rotation":[-0.08715574274765817,0,0,0.9961946980917455],"translation":[0.4375,1.57128,-1.902099375],"name":"driver_door"},{"translation":[-1.240625,0.94375,-3.4625],"name":"guide_wheel_l"},{"translation":[-1.303125,1.03125,3.7875],"name":"power_wheel_l"},{"translation":[-0.04375000000000018,-0.17421874999999998,0.4786562499999998],"name":"wheel"},{"translation":[-1.196875,0.65625,-2.90625],"name":"w1","children":[13]},{"translation":[-0.04375000000000018,-0.17421874999999998,0.47865625],"name":"wheel13"},{"translation":[-1.196875,0.65625,-1.8625],"name":"w2","children":[15]},{"translation":[-0.04375000000000018,-0.17421874999999998,0.47865625],"name":"wheel2"},{"translation":[-1.196875,0.65625,-1.03125],"name":"w3","children":[17]},{"translation":[-0.04375000000000018,-0.17421874999999998,0.47865625],"name":"wheel3"},{"translation":[-1.196875,0.65625,-0.19375],"name":"w4","children":[19]},{"translation":[-0.04375000000000018,-0.17421874999999998,0.47865625],"name":"wheel4"},{"translation":[-1.196875,0.65625,0.64375],"name":"w5","children":[21]},{"translation":[-0.04375000000000018,-0.17421874999999998,0.47865625],"name":"wheel16"},{"translation":[-1.196875,0.65625,1.48125],"name":"w6","children":[23]},{"translation":[-0.04375000000000018,-0.17421874999999998,0.4786562499999998],"name":"wheel5"},{"translation":[-1.196875,0.65625,2.31875],"name":"w7","children":[25]},{"translation":[-1.46875,0,0],"name":"track_l"},{"name":"wheels_l","children":[11,12,14,16,18,20,22,24,26,27]},{"translation":[1.46875,0,0],"name":"track_l2"},{"translation":[1.303125,1.03125,3.7875],"name":"power_wheel_r"},{"translation":[0.04375000000000018,-0.17421874999999998,0.4786562499999998],"name":"wheel6"},{"translation":[1.196875,0.65625,-2.84375],"name":"w8","children":[31]},{"translation":[0.04375000000000018,-0.17421874999999998,0.47865625],"name":"wheel7"},{"translation":[1.196875,0.65625,-1.8],"name":"w9","children":[33]},{"translation":[1.240625,0.94375,-3.4625],"name":"guide_wheel_r"},{"translation":[0.04375000000000018,-0.17421874999999998,0.47865625],"name":"wheel8"},{"translation":[1.196875,0.65625,-0.96875],"name":"w10","children":[36]},{"translation":[0.04375000000000018,-0.17421874999999998,0.47865625],"name":"wheel9"},{"translation":[1.196875,0.65625,-0.13125],"name":"w11","children":[38]},{"translation":[0.04375000000000018,-0.17421874999999998,0.54115625],"name":"wheel10"},{"translation":[1.196875,0.65625,0.64375],"name":"w12","children":[40]},{"translation":[0.04375000000000018,-0.17421874999999998,0.47865625],"name":"wheel11"},{"translation":[1.196875,0.65625,1.54375],"name":"w13","children":[42]},{"translation":[0.04375000000000018,-0.17421874999999998,0.4786562499999998],"name":"wheel12"},{"translation":[1.196875,0.65625,2.38125],"name":"w14","children":[44]},{"name":"wheels_r","children":[29,30,32,34,35,37,39,41,43,45]},{"name":"body","children":[8,9,10,28,46]},{"name":"visual","children":[7,47]},{"name":"module"},{"name":"armor"},{"name":"collision"},{"name":"root","children":[48,49,50,51]},{"name":"root","mesh":0,"children":[52],"skin":0}],"bufferViews":[{"buffer":0,"byteOffset":0,"byteLength":131964,"target":34962,"byteStride":12},{"buffer":0,"byteOffset":131964,"byteLength":131964,"target":34962,"byteStride":12},{"buffer":0,"byteOffset":263928,"byteLength":87976,"target":34962,"byteStride":8},{"buffer":0,"byteOffset":351904,"byteLength":87976,"target":34962,"byteStride":8},{"buffer":0,"byteOffset":439880,"byteLength":175952,"target":34962,"byteStride":16},{"buffer":0,"byteOffset":615832,"byteLength":32648,"target":34963},{"buffer":0,"byteOffset":648480,"byteLength":3392}],"buffers":[{"byteLength":651872,"uri":"data:application/octet-stream;base64,"}],"accessors":[{"bufferView":0,"componentType":5126,"count":10997,"max":[1.9070312976837158,2.9000000953674316,4.704273700714111],"min":[-1.9070312976837158,0.09550011157989502,-6.305445194244385],"type":"VEC3"},{"bufferView":1,"componentType":5126,"count":10997,"max":[1,1,1],"min":[-1,-1,-1],"type":"VEC3"},{"bufferView":2,"componentType":5126,"count":10997,"max":[0.74609375,0.755859375],"min":[0,0],"type":"VEC2"},{"bufferView":3,"componentType":5123,"count":10997,"max":[0,49,0,0],"min":[0,2,0,0],"type":"VEC4"},{"bufferView":4,"componentType":5126,"count":10997,"max":[0,1,0,0],"min":[0,1,0,0],"type":"VEC4"},{"bufferView":5,"componentType":5123,"count":16323,"max":[10996],"min":[0],"type":"SCALAR"},{"bufferView":6,"componentType":5126,"count":53,"max":[1,0,0.7071067690849304,0,0,1,0.1736481785774231,0,0,0,1,0,1.46875,0,4.293749809265137,1],"min":[0.7071067690849304,0,0,0,0,0.9848077297210693,0,0,-0.7071067690849304,-0.1736481785774231,0.7071067690849304,0,-1.46875,-2.8375000953674316,-3.7874999046325684,1],"type":"MAT4"}],"materials":[{"pbrMetallicRoughness":{"metallicFactor":0,"roughnessFactor":1,"baseColorTexture":{"index":0}},"alphaMode":"MASK","alphaCutoff":0.05,"doubleSided":true}],"textures":[{"sampler":0,"source":0,"name":"m1a2.png"}],"samplers":[{"magFilter":9728,"minFilter":9728,"wrapS":33071,"wrapT":33071}],"images":[{"mimeType":"image/png","name":"m1a2.png","uri":"m1a2.png"}],"meshes":[{"primitives":[{"mode":4,"attributes":{"POSITION":0,"NORMAL":1,"TEXCOORD_0":2,"JOINTS_0":3,"WEIGHTS_0":4},"indices":5,"material":0}]}],"skins":[{"inverseBindMatrices":6,"joints":[52,48,7,1,0,2,3,4,5,6,47,8,9,10,28,11,12,14,13,16,15,18,17,20,19,22,21,24,23,26,25,27,46,29,30,32,31,34,33,35,37,36,39,38,41,40,43,42,45,44,49,50,51],"skeleton":52}]}